{"title":"Todd McFarlane's Spawn UNCUT 1997-1999 HBO DVDrip XviD","uid":12149455,"size":4937225752,"categoryP":"video","categoryS":"tv_shows","magnet":"?xt=urn:btih:46b5df4bca33a8543dc4e17c004cab8d05641642&amp;dn=Todd+McFarlane%27s+Spawn+UNCUT+1997-1999+HBO+DVDrip+XviD&amp;tr=udp%3A%2F%2Ftracker.openbittorrent.com%3A80&amp;tr=udp%3A%2F%2Fopen.demonii.com%3A1337&amp;tr=udp%3A%2F%2Ftracker.coppersurfer.tk%3A6969&amp;tr=udp%3A%2F%2Fexodus.desync.com%3A6969","seeders":0,"leechers":1,"uploader":"TerminatorFan","files":18,"time":1437572126,"description":"All three seasons. (High Quality)\n\n---------------\n* General *\n---------------\n\nComplete name : 1x1 Burning Visions.avi\nFormat : AVI\nFormat/Info : Audio Video Interleave\nFile size : 261 MiB\nDuration : 27mn 41s\nOverall bit rate : 1 318 Kbps\nWriting application : Lavf55.43.100\n\n-------------\n* Video *\n-------------\n\nID : 0\nFormat : xvid\nCodec ID : xvid\nDuration : 27mn 41s\nBit rate : 1 114 Kbps\nWidth : 704 pixels\nHeight : 528 pixels\nDisplay aspect ratio : 4:3\nFrame rate : 23.976 fps\nBits/(Pixel*Frame) : 0.125\nStream size : 221 MiB (84%)\nTitle : Todd McFarlane's Spawn S01E01\n\n-------------\n* Audio *\n-------------\n\nID : 1\nFormat : MPEG Audio\nFormat version : Version 1\nFormat profile : Layer 3\nMode : Joint stereo\nCodec ID : 55\nCodec ID/Hint : MP3\nDuration : 27mn 40s\nBit rate mode : Constant\nBit rate : 192 Kbps\nChannel(s) : 2 channels\nSampling rate : 48.0 KHz\nCompression mode : Lossy\nStream size : 38.0 MiB (15%)\nAlignment : Aligned on interleaves\nInterleave, duration : 24 ms (0.58 video frame)\nInterleave, preload duration : 24 ms\nTitle : Anglais\n\n\nThanks goes to the original encoders/providers, D4KiD and AgentEncore.\n\n\nEnjoy &amp; Please Seed!","torrent":{"xt":"urn:btih:46b5df4bca33a8543dc4e17c004cab8d05641642","amp;dn":"Todd+McFarlane%27s+Spawn+UNCUT+1997-1999+HBO+DVDrip+XviD","amp;tr":["udp%3A%2F%2Ftracker.openbittorrent.com%3A80","udp%3A%2F%2Fopen.demonii.com%3A1337","udp%3A%2F%2Ftracker.coppersurfer.tk%3A6969","udp%3A%2F%2Fexodus.desync.com%3A6969"],"infoHash":"46b5df4bca33a8543dc4e17c004cab8d05641642","infoHashBuffer":{"type":"Buffer","data":[70,181,223,75,202,51,168,84,61,196,225,124,0,76,171,141,5,100,22,66]},"announce":[],"urlList":[]}}